<?xml version="1.0" encoding="UTF-8"?><svg id="a" xmlns="http://www.w3.org/2000/svg" viewBox="0 0 410.72 382.65"><defs><style>.b{stroke-miterlimit:10;}.b,.c,.d{fill:none;stroke:#1d1d1b;stroke-linecap:round;stroke-width:3px;}.e{fill:#ffec7b;}.f{fill:#ab3278;}.g{fill:#1d1d1b;}.c{stroke-miterlimit:3;}.d{stroke-linejoin:round;}</style></defs><path class="e" d="M159.09,333.18c-23.06,0-41.76,10.92-41.76,24.39,0,5.96,3.66,11.41,9.73,15.65,.96-.13,2.03,.06,3.13,.71,1.04,.62,2.43,.6,3.74,.84,.69-.13,1.43-.12,2.23,.11,2.12,.6,4.2,1.15,6.16,2.07,1.95,.27,3.97,.31,5.9,.53,1.86,.22,3.7,.51,5.54,.78,.49-.17,1.03-.27,1.62-.25,4.49,.15,9.04,1.47,13.53,1.21,3.37-.2,6.49-1.74,9.93-1.6,.91,.04,1.68,.27,2.33,.64,11.81-4.31,19.67-11.96,19.67-20.7,0-13.47-18.69-24.39-41.76-24.39Z"/><path class="e" d="M188.06,0C84.2,0,0,84.2,0,188.06s84.2,188.06,188.06,188.06c5.7,0,11.35-.26,16.92-.76,2.13-1.13,4.1-2.28,6.5-2.96,3.2-.91,6.44-1.63,9.64-2.57,6.2-1.83,12.87-4.01,19.23-5.02,.39-.06,.77-.08,1.13-.07,.57-.68,1.37-1.22,2.45-1.52,8.18-2.31,15.57-4.6,23.2-8.48,5.39-2.74,11.24-5.11,16.46-8.32,1.59-1.27,3.24-2.47,5.01-3.51,1.16-.69,2.39-.78,3.51-.48,2.67-1.82,5.19-3.77,7.39-5.93,3.55-3.5,6.9-7.55,10.83-10.74,1.04-.99,2.17-1.84,3.47-2.47,.86-.42,1.7-.58,2.49-.57,3.08-3.76,6.34-7.42,9.49-11.11,.28-.32,.57-.59,.86-.81,.11-.65,.38-1.33,.87-2.02,1.96-2.7,4.33-4.92,6.46-7.46,2.09-2.5,3.31-5.57,5.26-8.18,1.91-2.56,4.31-4.55,6.02-7.27,2.08-3.3,4.22-6.54,6.4-9.78,8.78-12.99,16.91-29.9,16.93-45.78,0-1.12,.31-2.04,.81-2.78-.02-.18-.02-.36-.02-.54v-.8c0-.9,.23-1.74,.68-2.52l.78-1.01c.62-.62,1.36-1.05,2.21-1.29l.14-.02c1.93-10.81,2.94-21.95,2.94-33.31C376.12,84.2,291.92,0,188.06,0Z"/><g><g><path class="f" d="M130.7,47.97c26.03-3.72,62.76-11.85,71.43-13.13,11.3-1.66,46.85-1.66,61.81,0,14.94,1.68,22.42,21.62,22.42,21.62l18.78-18c29.98-13.21,45.17,27.16,45.17,27.16,13.21,37.21,40.8,79.59,40.8,79.59,25.98,32.39,16.39,42.93,16.39,42.93-48.38,34.14-50.41,65.68-50.41,65.68-14.96-4.82-30.4,8.44-30.4,8.44-14.11,11.05-26.41,14.11-35.1,14.46-8.41,.33-13.43-1.91-13.43-1.91,7.98-26.54-10.62-36.2-10.62-36.2-4.64-10.9-4.57-20.08-2.49-27.42,3.99-13.98,15.29-21.34,15.29-21.34l6.75-16.17,14.31-41.83-16.39-32.16c18.65,42.48-5.15,88.15-5.15,88.15-8.34,7.88-12.75,15.97-14.89,23.32-4.62,15.87,1.33,28.39,1.33,28.39,17.55,11.15,9.57,36.68,9.57,36.68,5.72,.65,10.97,.78,15.72,.53,24.4-1.31,36.13-12.48,36.13-12.48,20.74-12.78,27.92-9.59,27.92-9.59-27.92,103.71-149.96,118.07-149.96,118.07l1.58-7.18-11.95-18.35c-2.08-4.85-13.21-.65-16.07,.53l-6.15-4.07c4.29-2.66,7.66-6.08,8.96-10.37,5.27-17.25,23.83-15.26,23.83-15.26,0,0,41.1-49.71,15.92-64.3-25.18-14.56-15.19,16.19-15.19,16.19l-11.62,7.48c-21.59,23.25-42.65,21.59-42.65,21.59-31.03,15.79-22.97,36.55-22.97,36.55,.1,1.88,.18,3.69,.23,5.42v.25c-.03,1.33-.08,4.85-.23,8.91v.08c-2.71,38.26-28.24,30.2-28.24,30.2-34.07-10.8-28.24-32.41-28.24-32.41-2.51-51.49,24.9-56.49,24.9-56.49l-6.63-1.66c-15.79,9.14-25.76,5-25.76,5-8.99-5.8-16.27-16.32-20.41-23.2v-.03l-2.76-11.25c2.89-10.54,26.31-7.68,26.31-7.68-2.89-3.69,4.49-11.12,4.49-11.12,0,0,.4-7.96-2.76-6.3l-3.04-5.77c6.45,0,11.62-7.03,11.62-7.03,10.09-17.5-3.16-25.98-3.16-25.98-12.2-5.3-50.36-5.4-50.36-5.4,3.44-2.71,6.83-3.29,6.83-3.29,19.66-5.17,26.08-11.05,28.07-15.72,.55-1.26,2.16-5.72,6.48-9.29,2.41-1.98,4.82-3.04,6.53-3.62,.45-.15,3.34-2.06,5.67-4.34l3.84,2.41c14.41-2.18,14.16-30.8,14.16-30.8,1.58-4.82-28.37-12.2-28.37-12.2l.4,12.2c.43,1.46,.83,2.86,1.21,4.17-.95-.83-1.96-1.61-3.01-2.39,.1-5.15,.6-11.1,1.81-17.6,.85-4.67,1.93-8.91,3.11-12.68,18.28-9.97,20.76-26.59,20.76-26.59,.83-16.59,18.28-21.59,18.28-21.59,4.82,0,11.75-.73,19.63-1.83Zm154.2,51.49c-1.23-2.79-2.64-5.55-4.24-8.28l4.24,8.28Zm-121.21,42.98c22.29,4.77,50.39-6.9,50.06-13.81-.35-6.88-20.89-17.5-34.14-19.08-13.26-1.61-25.46,10.59-25.46,10.59,0,0-6.35,.53-2.64,9.57,3.69,9.01,12.18,12.73,12.18,12.73Z"/><path class="g" d="M285,99.68l16.39,32.16-14.31,41.83-6.75,16.17s-11.3,7.36-15.29,21.34l-.08-.03c2.13-7.36,6.55-15.44,14.89-23.32,0,0,23.8-45.67,5.15-88.15Z"/><path class="g" d="M291.57,276.7v.05c-4.74,.25-9.99,.13-15.72-.53,0,0,7.98-25.53-9.57-36.68,0,0-5.95-12.53-1.33-28.39l.08,.03c-2.08,7.33-2.16,16.52,2.49,27.42,0,0,18.6,9.67,10.62,36.2,0,0,5.02,2.23,13.43,1.91Z"/><path class="f" d="M173.07,343.69l6.15,4.07c-.43,.18-.68,.28-.68,.28-16.77,27.11-51.69,20.36-51.69,20.36,1.48-1.05,2.16-10.57,2.49-18.15v-.08c.18-2.23,.25-4.59,.25-7.13,0-.58-.03-1.18-.03-1.78v-.55l3.92-1.81s27.42-21.59,49.03-33.21c21.59-11.62,24.08-35.73,24.08-35.73,0,0-9.99-30.75,15.19-16.19,25.18,14.59-15.92,64.3-15.92,64.3,0,0-18.55-1.98-23.83,15.26-1.31,4.29-4.67,7.71-8.96,10.37Z"/><path class="f" d="M194.97,277.43l11.62-7.48s-2.49,24.1-24.08,35.73c-21.62,11.62-49.03,33.21-49.03,33.21l-3.92,1.81v.3c-.05-1.73-.13-3.54-.23-5.42,0,0-8.06-20.76,22.97-36.55,0,0,21.06,1.66,42.65-21.59Z"/><path class="g" d="M68.51,114.27s29.95,7.38,28.37,12.2c0,0,.25,28.62-14.16,30.8l-3.84-2.41c1.13-1.13,2.11-2.33,2.61-3.49,2.18-4.92-2.44-13.28-11.37-20.74-.38-1.31-.78-2.71-1.21-4.17l-.4-12.2Z"/><path class="g" d="M70.12,130.64c8.94,7.46,13.56,15.82,11.37,20.74-.5,1.15-1.48,2.36-2.61,3.49l-2.94-1.83s-.45-3.77-5.82-22.39Z"/><path class="g" d="M75.66,196.52s13.26,8.49,3.16,25.98c0,0-5.17,7.03-11.62,7.03-4.22,0-8.99-2.99-13.23-12.85,0,0-14.39-4.77-5.9,18.03,0,0,15.41,7.96,20.44,2.13,.68-.78,1.26-1.28,1.73-1.53,3.16-1.66,2.76,6.3,2.76,6.3,0,0-7.38,7.43-4.49,11.12,0,0-23.42-2.86-26.31,7.68l-16.9-69.29s38.16,.1,50.36,5.4Z"/><path class="g" d="M42.2,260.41l2.76,11.25c-.15-.23-.28-.45-.4-.65-2.49-4.54-3.06-7.98-2.36-10.59Z"/><path class="g" d="M25.3,191.12l16.9,69.29c-.7,2.61-.13,6.05,2.36,10.59-2.11-3.59-3.29-6.05-3.29-6.05-2.49-8.28-13.28-14.94-13.28-14.94-4.17-2.49-5.82-8.31-5.82-8.31,3.34-6.65-2.49-23.27-2.49-23.27-3.84-15.84,.93-23.6,5.62-27.32Z"/></g><g><path class="d" d="M285,99.68l16.39,32.16-14.31,41.83-6.75,16.17s-11.3,7.36-15.29,21.34c-2.08,7.33-2.16,16.52,2.49,27.42,0,0,18.6,9.67,10.62,36.2,0,0,5.02,2.23,13.43,1.91,8.69-.35,20.99-3.41,35.1-14.46,0,0,15.44-13.26,30.4-8.44,0,0,2.03-31.53,50.41-65.68,0,0,9.59-10.54-16.39-42.93,0,0-27.59-42.38-40.8-79.59,0,0-15.19-40.37-45.17-27.16l-18.78,18s-7.48-19.93-22.42-21.62c-14.96-1.66-50.51-1.66-61.81,0-8.66,1.28-45.39,9.41-71.43,13.13-7.88,1.1-14.81,1.83-19.63,1.83,0,0-17.45,5-18.28,21.59,0,0-2.49,16.62-20.76,26.59-1.18,3.77-2.26,8.01-3.11,12.68-1.21,6.5-1.71,12.45-1.81,17.6,1.05,.78,2.06,1.56,3.01,2.39"/><path class="d" d="M284.9,99.46c-1.23-2.79-2.64-5.55-4.24-8.28l4.24,8.28Z"/><line class="d" x1="284.9" y1="99.46" x2="285" y2="99.68"/><path class="d" d="M129.34,350.24c-.33,7.58-1,17.1-2.49,18.15,0,0,34.92,6.75,51.69-20.36,0,0,.25-.1,.68-.28,2.86-1.18,13.98-5.37,16.07-.53l11.95,18.35-1.58,7.18s122.04-14.36,149.96-118.07c0,0-7.18-3.19-27.92,9.59,0,0-11.72,11.17-36.13,12.48-4.74,.25-9.99,.13-15.72-.53,0,0,7.98-25.53-9.57-36.68,0,0-5.95-12.53-1.33-28.39,2.13-7.36,6.55-15.44,14.89-23.32,0,0,23.8-45.67,5.15-88.15"/><path class="d" d="M129.57,341.25c-.03,1.33-.08,4.85-.23,8.91"/><path class="d" d="M129.57,341c-.05-1.73-.13-3.54-.23-5.42,0,0-8.06-20.76,22.97-36.55,0,0,21.06,1.66,42.65-21.59l11.62-7.48s-2.49,24.1-24.08,35.73c-21.62,11.62-49.03,33.21-49.03,33.21l-3.92,1.81v.3"/><path class="d" d="M129.57,341v.25"/><path class="d" d="M129.34,350.16c.18-2.23,.25-4.59,.25-7.13,0-.58-.03-1.18-.03-1.78"/><path class="d" d="M129.34,350.16v.08"/><path class="d" d="M78.88,154.87c-2.33,2.28-5.22,4.19-5.67,4.34-1.71,.58-4.12,1.63-6.53,3.62-4.32,3.57-5.92,8.03-6.48,9.29-1.98,4.67-8.41,10.54-28.07,15.72,0,0-3.39,.58-6.83,3.29-4.69,3.72-9.46,11.47-5.62,27.32,0,0,5.82,16.62,2.49,23.27,0,0,1.66,5.82,5.82,8.31,0,0,10.8,6.65,13.28,14.94,0,0,1.18,2.46,3.29,6.05"/><path class="b" d="M154.14,120.14s12.2-12.2,25.46-10.59c13.26,1.58,33.79,12.2,34.14,19.08,.33,6.9-27.77,18.58-50.06,13.81,0,0-8.49-3.72-12.18-12.73-3.72-9.04,2.64-9.57,2.64-9.57Z"/><path class="c" d="M130.72,47.94l-.03,.03c-.68,.53-23.72,18.88-21.62,35.07"/><path class="b" d="M227.33,85.15s16.97,2.23,10.09,58.4"/><path class="d" d="M44.96,271.66v.03c4.14,6.88,11.42,17.4,20.41,23.2,0,0,9.97,4.14,25.76-5l6.63,1.66s-27.42,5-24.9,56.49c0,0-5.82,21.62,28.24,32.41,0,0,25.53,8.06,28.24-30.2"/><path class="b" d="M227.33,212.01s-8.86-11.27-37.36-15.89c-28.5-4.64-19.88-20.56-19.88-20.56"/><path class="b" d="M100.49,169.6s-22.49,17.4-24.83,26.91"/><path class="b" d="M206.59,269.95s-9.99-30.75,15.19-16.19c25.18,14.59-15.92,64.3-15.92,64.3,0,0-18.55-1.98-23.83,15.26-1.31,4.29-4.67,7.71-8.96,10.37-12.85,8.01-34.14,9.52-34.14,9.52"/></g></g><path class="g" d="M187.73,345.2s31.89-7.87,51.33-58.19c0,0-5.32,45.64-22.4,49.11-17.08,3.47-7.28,21.22-7.28,21.22,0,0,6.06-1.21,7.28-9.7,1.21-8.49,4.92,22.12,4.92,22.12l-15.92,3,1.6-7.18-11.97-18.35-7.56-2.03Z"/><path class="g" d="M161.76,114.35s3.97-11.06-4.51-13.49,2.72-15.71,2.72-15.71c0,0,8.17,3.58,2.72,9.64s4.26,10.31,12.14,7.88,4.78,6.87,4.78,6.87l-17.85,4.8Z"/><path class="g" d="M152.73,132.2s.87,5.14-7.01,3.57c-7.88-1.57,9.41,14.8,8.34,28.14-1.07,13.34,3.46-25.73,3.46-25.73"/><path class="b" d="M60.82,264.27c15.23,11.61,39.99,26.48,72.55,30.37,16.99,2.03,37.71,4.51,54.18-8.85,10.84-8.79,15.23-20.71,17.11-27.75"/><path class="b" d="M157.53,255.83s12.61,29.37-18.6,38.13"/><path class="g" d="M184.44,114.27s3.11,4.95,1.24,5.88c-1.86,.93-5.36-3.73-5.48,1.24s-2.29,7.14,4.23,8.08c0,0-.44,9.63-17.3,0,0,0-5.48-7.72,1.72-15.19,7.2-7.48,15.58,0,15.58,0Z"/><path class="b" d="M68.9,331.96c-2.77-2.5-6.65-6.14-11.06-10.73-10.43-10.87-35.16-36.98-47.93-78.04-5.44-17.49-8.37-36.09-8.37-55.37C1.53,84.99,84.9,1.62,187.73,1.62c41.36,0,79.58,13.49,110.48,36.3,1.01,.75,1.84,1.38,2.4,1.8"/><path class="b" d="M370,225.74c-2.3,12.17-5.77,22.91-9.76,32.3-34.45,80.96-128.06,108.32-154.54,115.12"/><path class="b" d="M216.63,370.68s-44.23,15.27-90.02,1.05"/></svg>